<svg xmlns="http://www.w3.org/2000/svg" xmlns:xlink="http://www.w3.org/1999/xlink" width="500" zoomAndPan="magnify" viewBox="0 0 375 374.999991" height="500" preserveAspectRatio="xMidYMid meet" version="1.2"><g id="c80f1d0da7"><path style="fill:none;stroke-width:51;stroke-linecap:round;stroke-linejoin:miter;stroke:#ffffff;stroke-opacity:1;stroke-miterlimit:4;" d="M 25.499683 25.500658 L 41.529463 25.500658 " transform="matrix(0.749825,0,0,0.749825,102.758604,37.843811)"/><path style="fill:none;stroke-width:51;stroke-linecap:round;stroke-linejoin:miter;stroke:#ffffff;stroke-opacity:1;stroke-miterlimit:4;" d="M 25.498252 25.501165 L 124.938488 25.501165 " transform="matrix(0.747819,0,0,0.747819,159.967084,37.843811)"/><path style="fill:none;stroke-width:51;stroke-linecap:round;stroke-linejoin:miter;stroke:#ffffff;stroke-opacity:1;stroke-miterlimit:4;" d="M 25.502589 25.49751 L 199.665133 25.49751 " transform="matrix(0.749479,0,0,0.749479,64.10899,90.132328)"/><path style="fill:none;stroke-width:51;stroke-linecap:round;stroke-linejoin:miter;stroke:#ffffff;stroke-opacity:1;stroke-miterlimit:4;" d="M 25.497581 25.500648 L 69.492376 25.500648 " transform="matrix(0.75,0,0,0.75,239.716659,90.132328)"/><path style="fill:none;stroke-width:51;stroke-linecap:round;stroke-linejoin:miter;stroke:#ffffff;stroke-opacity:1;stroke-miterlimit:4;" d="M 25.501725 25.498984 L 184.954426 25.498984 " transform="matrix(0.748385,0,0,0.748385,26.774263,142.420846)"/><path style="fill:none;stroke-width:51;stroke-linecap:round;stroke-linejoin:miter;stroke:#ffffff;stroke-opacity:1;stroke-miterlimit:4;" d="M 25.498542 25.498063 L 184.526009 25.498063 " transform="matrix(0.749944,0,0,0.749944,190.811111,142.420846)"/><path style="fill:none;stroke-width:51;stroke-linecap:round;stroke-linejoin:miter;stroke:#ffffff;stroke-opacity:1;stroke-miterlimit:4;" d="M 25.500301 25.501217 L 124.935314 25.501217 " transform="matrix(-0.747819,0,0,-0.747819,215.065699,337.499978)"/><path style="fill:none;stroke-width:51;stroke-linecap:round;stroke-linejoin:miter;stroke:#ffffff;stroke-opacity:1;stroke-miterlimit:4;" d="M 25.500134 25.499351 L 199.674765 25.499351 " transform="matrix(-0.749427,0,0,-0.749427,310.923001,285.211476)"/><path style="fill:none;stroke-width:51;stroke-linecap:round;stroke-linejoin:miter;stroke:#ffffff;stroke-opacity:1;stroke-miterlimit:4;" d="M 25.498154 25.499664 L 184.383581 25.499664 " transform="matrix(-0.75,0,0,-0.75,348.217364,232.941153)"/><path style="fill:none;stroke-width:51;stroke-linecap:round;stroke-linejoin:miter;stroke:#ffffff;stroke-opacity:1;stroke-miterlimit:4;" d="M 25.500396 25.499664 L 185.099365 25.499664 " transform="matrix(-0.75,0,0,-0.75,184.613577,232.941153)"/><path style="fill:none;stroke-width:51;stroke-linecap:round;stroke-linejoin:miter;stroke:#ffffff;stroke-opacity:1;stroke-miterlimit:4;" d="M 25.501402 25.499972 L 42.188903 25.499972 " transform="matrix(-0.75,0,0,-0.75,272.786207,337.499978)"/><path style="fill:none;stroke-width:51;stroke-linecap:round;stroke-linejoin:miter;stroke:#ffffff;stroke-opacity:1;stroke-miterlimit:4;" d="M 25.499766 25.500928 L 69.666043 25.500928 " transform="matrix(-0.748768,0,0,-0.748768,135.441075,285.211476)"/><path style="fill:none;stroke-width:17;stroke-linecap:round;stroke-linejoin:miter;stroke:#ffffff;stroke-opacity:1;stroke-miterlimit:4;" d="M 12.204176 11.290961 C 22.97501 16.468045 33.745844 16.457628 44.51147 11.249294 " transform="matrix(0,-0.75,0.75,0,189.523967,104.645319)"/><path style="fill:none;stroke-width:17;stroke-linecap:round;stroke-linejoin:miter;stroke:#ffffff;stroke-opacity:1;stroke-miterlimit:4;" d="M 12.206848 11.294596 C 22.977682 16.47168 33.743308 16.456055 44.514142 11.247721 " transform="matrix(0,0.75,-0.75,0,214.662353,62.044083)"/><path style="fill:none;stroke-width:17;stroke-linecap:round;stroke-linejoin:miter;stroke:#ffffff;stroke-opacity:1;stroke-miterlimit:4;" d="M 12.20625 11.293948 C 22.977084 16.471031 33.74271 16.455406 44.513544 11.247073 " transform="matrix(0,-0.75,0.75,0,142.424071,156.689843)"/><path style="fill:none;stroke-width:17;stroke-linecap:round;stroke-linejoin:miter;stroke:#ffffff;stroke-opacity:1;stroke-miterlimit:4;" d="M 12.204783 11.291632 C 22.975617 16.468716 33.746452 16.453091 44.512077 11.249965 " transform="matrix(0,0.75,-0.75,0,167.562473,114.088601)"/><path style="fill:none;stroke-width:17;stroke-linecap:round;stroke-linejoin:miter;stroke:#ffffff;stroke-opacity:1;stroke-miterlimit:4;" d="M 12.20898 11.291291 C 22.974606 16.468375 33.74544 16.457958 44.511065 11.249625 " transform="matrix(0,-0.75,0.75,0,51.504188,208.969234)"/><path style="fill:none;stroke-width:17;stroke-linecap:round;stroke-linejoin:miter;stroke:#ffffff;stroke-opacity:1;stroke-miterlimit:4;" d="M 12.207224 11.294295 C 22.972849 16.471378 33.743684 16.455753 44.514518 11.24742 " transform="matrix(0,0.75,-0.75,0,76.642595,166.36802)"/><path style="fill:none;stroke-width:17;stroke-linecap:round;stroke-linejoin:miter;stroke:#ffffff;stroke-opacity:1;stroke-miterlimit:4;" d="M 12.20686 11.291643 C 22.977694 16.468727 33.74332 16.453102 44.514154 11.249977 " transform="matrix(0,-0.75,0.75,0,175.671893,313.311395)"/><path style="fill:none;stroke-width:17;stroke-linecap:round;stroke-linejoin:miter;stroke:#ffffff;stroke-opacity:1;stroke-miterlimit:4;" d="M 12.204151 11.293933 C 22.974985 16.471017 33.745819 16.455392 44.511445 11.247058 " transform="matrix(0,0.75,-0.75,0,200.810293,270.710169)"/><path style="fill:none;stroke-width:17;stroke-linecap:round;stroke-linejoin:miter;stroke:#ffffff;stroke-opacity:1;stroke-miterlimit:4;" d="M 12.205823 11.292566 C 22.976657 16.46965 33.742283 16.454025 44.513117 11.250899 " transform="matrix(0,-0.75,0.75,0,215.468076,261.041085)"/><path style="fill:none;stroke-width:17;stroke-linecap:round;stroke-linejoin:miter;stroke:#ffffff;stroke-opacity:1;stroke-miterlimit:4;" d="M 12.205208 11.293013 C 22.976042 16.470097 33.741667 16.454472 44.512501 11.246138 " transform="matrix(0,0.75,-0.75,0,240.606478,218.439845)"/><path style="fill:none;stroke-width:17;stroke-linecap:round;stroke-linejoin:miter;stroke:#ffffff;stroke-opacity:1;stroke-miterlimit:4;" d="M 12.20898 11.295712 C 22.974606 16.472796 33.74544 16.457171 44.511065 11.248837 " transform="matrix(0,-0.75,0.75,0,298.391498,208.969234)"/><path style="fill:none;stroke-width:17;stroke-linecap:round;stroke-linejoin:miter;stroke:#ffffff;stroke-opacity:1;stroke-miterlimit:4;" d="M 12.207224 11.295095 C 22.972849 16.472179 33.743684 16.456554 44.514518 11.24822 " transform="matrix(0,0.75,-0.75,0,323.529914,166.36802)"/></g></svg>